<svg width="512" height="512" xmlns="http://www.w3.org/2000/svg">

 <g>
  <title>background</title>
  <rect fill="none" id="canvas_background" height="602" width="802" y="-1" x="-1"/>
 </g>
 <g>
  <title>Layer 1</title>
  <rect stroke="null" id="svg_27" height="43.91832" width="43.91829" y="298.36674" x="212.20415" stroke-opacity="null" stroke-width="null" fill="#ffffff"/>
  <path id="svg_1" fill="#ffffff" d="m472.91396,371.63647c0.176,-0.611 0.336,-1.229 0.479,-1.851c0.046,-0.201 0.089,-0.401 0.131,-0.603c0.113,-0.541 0.213,-1.085 0.3,-1.634c0.037,-0.238 0.076,-0.474 0.11,-0.711c0.075,-0.545 0.131,-1.094 0.18,-1.643c0.021,-0.225 0.047,-0.448 0.063,-0.674c0.052,-0.767 0.084,-1.537 0.084,-2.314l0,0l0,0l0,-0.006l-0.006,-40.908l0,-0.001l-0.005,-26.206l0,-0.002l0,-4.214l-0.004,-25.576l0,0l-0.008,-48.827l-0.005,-26.206l-0.006,-40.988c0,-2.996 -0.408,-5.93 -1.16,-8.75c-0.405,-1.517 -0.915,-2.997 -1.521,-4.435c-2.478,-5.877 -6.574,-11.017 -11.926,-14.741c-0.784,-0.545 -1.584,-1.071 -2.42,-1.554l-22.875,-13.201l-21.415,-12.359l-17.24,-9.95l-65.931,-38.05l-25.72,-14.844l-19.29,-11.133l-11.954,-6.898c-10.532,-6.079 -23.51,-6.077 -34.042,0.006l-11.873,6.857l-19.29,11.141l-25.719,14.855l0,0l-65.921,38.076l-28.892,16.686l-21.409,12.366l-11.283,6.518c-0.811,0.469 -1.59,0.979 -2.353,1.507c-3.272,2.267 -6.074,5.068 -8.333,8.237c-1.517,2.128 -2.781,4.423 -3.774,6.842c-1.655,4.032 -2.558,8.399 -2.557,12.9l0.006,40.915l0.005,26.206l0.012,73.743l0,4.011l0,0.849l0,0.002l0,0.013l0,0l0,0.005l0,0l0.005,26.201l0,0.001l0,1.863l0.002,12.618l0.004,26.499l0,0.006l0,0c0,0.773 0.033,1.54 0.084,2.304c0.016,0.224 0.042,0.446 0.061,0.669c0.048,0.55 0.105,1.096 0.18,1.638c0.033,0.236 0.072,0.471 0.109,0.706c0.087,0.546 0.186,1.087 0.298,1.626c0.042,0.201 0.086,0.403 0.131,0.603c0.14,0.615 0.298,1.223 0.471,1.825c0.033,0.113 0.061,0.227 0.095,0.34c0.909,3.043 2.24,5.93 3.94,8.59c0,0 0.001,0.001 0.001,0.002l0.001,0.001c1.172,1.832 2.517,3.552 4.026,5.137c0.051,0.052 0.099,0.106 0.148,0.158c0.709,0.735 1.454,1.44 2.232,2.113c0.125,0.108 0.254,0.213 0.382,0.321c0.786,0.661 1.595,1.3 2.445,1.89c0.784,0.545 1.584,1.071 2.42,1.554l22.553,13.016l21.415,12.36l17.562,10.136l91.65,52.894l19.29,11.133l11.954,6.898c10.533,6.079 23.511,6.077 34.043,-0.006l11.873,-6.857l19.29,-11.141l25.719,-14.854l55.558,-32.088l10.363,-5.986l26.362,-15.226l21.409,-12.366l13.814,-7.979c0.811,-0.469 1.59,-0.979 2.353,-1.507c0.851,-0.59 1.659,-1.226 2.446,-1.883c0.128,-0.107 0.258,-0.213 0.385,-0.323c0.78,-0.672 1.526,-1.374 2.238,-2.11c0.047,-0.048 0.09,-0.098 0.136,-0.146c3.724,-3.892 6.477,-8.609 8.021,-13.766c0.034,-0.104 0.062,-0.213 0.093,-0.32z"/>
  <path stroke="null" id="svg_2" fill="#103B9B" d="m37.97416,352.74586l0.004,22.93397l0,0.00519l0,0c0,0.669 0.033,1.33282 0.084,1.99403c0.016,0.19386 0.042,0.386 0.061,0.579c0.048,0.47601 0.105,0.94855 0.18,1.41763c0.033,0.20425 0.072,0.40763 0.109,0.61102c0.087,0.47254 0.186,0.94076 0.298,1.40725c0.042,0.17396 0.086,0.34878 0.131,0.52188c0.14,0.53226 0.298,1.0576 0.471,1.57947c0.033,0.0978 0.061,0.19646 0.095,0.29426c0.909,2.63275 2.24,5.13221 3.94,7.43435c0,0 0.001,0.00087 0.001,0.00173l0.001,0.00087c1.172,1.5864 2.517,3.07413 4.026,4.4459c0.051,0.045 0.099,0.09174 0.148,0.13674c0.709,0.63612 1.454,1.24714 2.232,1.82786c0.125,0.0952 0.254,0.18608 0.382,0.27868c0.786,0.57207 1.595,1.12511 2.445,1.63573c0.784,0.47168 1.584,0.92691 2.42,1.34493l22.553,11.2649l21.415,10.69715l17.562,8.77236l91.65,45.77793l19.29,9.63523l11.954,5.96998c10.533,5.26116 23.511,5.25943 34.043,-0.00519l11.873,-5.9345l19.29,-9.64215l25.719,-12.85562l55.558,-27.77106l10.363,-5.18068l26.362,-13.17758l21.409,-10.70235l13.814,-6.90555c0.811,-0.4059 1.59,-0.84729 2.353,-1.30426c0.851,-0.51062 1.659,-1.06106 2.446,-1.62967c0.128,-0.0926 0.258,-0.18434 0.385,-0.27955c0.78,-0.58159 1.526,-1.18915 2.238,-1.82613c0.047,-0.04154 0.09,-0.08482 0.136,-0.12636c3.724,-3.36839 6.477,-7.45079 8.021,-11.914c0.031,-0.09174 0.059,-0.18608 0.09,-0.27868c0.176,-0.5288 0.336,-1.06366 0.479,-1.60198c0.046,-0.17396 0.089,-0.34705 0.131,-0.52188c0.113,-0.46822 0.213,-0.93903 0.3,-1.41417c0.037,-0.20425 0.076,-0.40937 0.11,-0.61535c0.075,-0.47168 0.131,-0.94682 0.18,-1.42196c0.02,-0.19473 0.047,-0.38686 0.063,-0.58332c0.052,-0.66381 0.084,-1.33022 0.084,-2.00269l0,0l0,-0.00519l-0.006,-32.74835l-436.895,0l0.002,9.88015z"/>
  <path stroke="null" id="svg_3" fill="#ED1F34" d="m438.932,179.55593l35.506,0l-0.006,-36.24793c0,-2.86404 -0.408,-5.66882 -1.16,-8.36461c-0.405,-1.45018 -0.915,-2.865 -1.521,-4.23966c-2.478,-5.61815 -6.574,-10.53176 -11.926,-14.09174c-0.784,-0.521 -1.584,-1.02383 -2.42,-1.48556l-22.875,-12.61957l-21.415,-11.81466l-17.24,-9.51176l-65.931,-36.37411l-25.719,-14.18925l-19.29,-10.64265l-11.954,-6.59418c-10.533,-5.81125 -23.511,-5.80934 -34.043,0.00574l-11.873,6.55499l-19.29,10.6503l-25.718,14.20072l0,0l-65.92,36.39705l-28.892,15.95108l-21.409,11.82135l-11.283,6.23092c-0.811,0.44834 -1.59,0.93588 -2.353,1.44063c-3.272,2.16715 -6.074,4.84478 -8.333,7.87421c-1.517,2.03427 -2.781,4.22819 -3.774,6.54065c-1.655,3.85441 -2.558,8.02907 -2.557,12.33183l0.006,36.17814l360.238,0l41.152,0l0,-0.00191z"/>
  <g id="svg_4">
   <path id="svg_5" fill="#FFFFFF" d="m325.657,255.999l0,25.678c0,38.477 -31.193,69.655 -69.655,69.655l0,-95.335l69.655,0l0,0.002z"/>
   <rect id="svg_6" fill="#FFFFFF" height="95.339" width="69.655" y="160.658" x="186.341"/>
  </g>
  <g id="svg_7">
   <path stroke="null" id="svg_8" fill="#ED1F34" d="m256.00203,255.999l0,95.335c38.84376,0 70.34455,-31.179 70.34455,-69.655l0,-25.679l-70.34455,0l0,-0.001z"/>
   <rect id="svg_9" fill="#ED1F34" height="95.339" width="69.655" y="160.658" x="186.23377"/>
  </g>
  <path id="svg_10" d="m483.475,149.494c0,-3.711 -0.494,-7.439 -1.466,-11.081c-0.506,-1.898 -1.155,-3.787 -1.925,-5.615c-3.179,-7.543 -8.398,-13.992 -15.095,-18.653c-1.115,-0.775 -2.087,-1.397 -3.062,-1.96l-184.424,-106.435c-13.289,-7.669 -29.799,-7.666 -43.085,0.007l-184.389,106.496c-0.946,0.546 -1.892,1.151 -2.979,1.904c-4.086,2.831 -7.634,6.335 -10.547,10.421c-1.912,2.684 -3.519,5.596 -4.775,8.657c-2.147,5.231 -3.235,10.726 -3.235,16.335l0.035,212.932c0,0.921 0.034,1.875 0.105,2.92c0.016,0.234 0.037,0.465 0.061,0.698l0.014,0.147c0.061,0.694 0.134,1.385 0.231,2.094c0.034,0.24 0.071,0.477 0.109,0.715l0.025,0.16c0.11,0.691 0.234,1.376 0.38,2.072c0.054,0.254 0.107,0.509 0.163,0.75c0.177,0.778 0.377,1.546 0.608,2.35l0.112,0.393c1.143,3.827 2.82,7.484 4.985,10.872c0.013,0.021 0.027,0.042 0.041,0.063c1.478,2.301 3.179,4.469 5.053,6.438c0.039,0.042 0.153,0.163 0.193,0.204c0.887,0.921 1.836,1.82 2.828,2.679l0.48,0.404c1.098,0.922 2.111,1.705 3.096,2.39c1.113,0.774 2.086,1.397 3.065,1.963l184.424,106.436c6.643,3.834 14.089,5.751 21.536,5.751c7.452,0 14.904,-1.919 21.549,-5.757l184.386,-106.496c0.949,-0.549 1.896,-1.154 2.979,-1.904c0.996,-0.69 1.98,-1.446 3.114,-2.392l0.474,-0.398c0.99,-0.854 1.942,-1.752 2.808,-2.645l0.197,-0.207c4.696,-4.907 8.205,-10.931 10.152,-17.433l0.112,-0.397l0,0c0.224,-0.774 0.427,-1.555 0.606,-2.344l0.168,-0.77c0.143,-0.682 0.27,-1.371 0.379,-2.063l0.019,-0.119c0.041,-0.258 0.081,-0.515 0.118,-0.782c0.095,-0.69 0.169,-1.385 0.228,-2.071l0.014,-0.146c0.024,-0.239 0.047,-0.477 0.063,-0.721c0.071,-1.044 0.105,-2 0.105,-2.931l-0.033,-212.931zm-435.017,-9.394c0.731,-1.781 1.663,-3.471 2.77,-5.025c1.696,-2.379 3.755,-4.415 6.117,-6.051c0.67,-0.464 1.22,-0.817 1.729,-1.112l184.388,-106.495c7.71,-4.454 17.29,-4.455 25.001,-0.005l184.422,106.435c0.526,0.304 1.091,0.668 1.778,1.145c3.881,2.701 6.909,6.446 8.759,10.831c0.448,1.065 0.825,2.159 1.116,3.254c0.567,2.122 0.854,4.282 0.854,6.42l0.005,28.874l-26.463,0c-4.994,0 -9.042,4.048 -9.042,9.042c0,4.994 4.048,9.042 9.042,9.042l26.466,0l0.02,119.086l-138.396,0c4.912,-10.262 7.669,-21.743 7.669,-33.858l0,-85.228l63.55311,0c106.38905,0 43.92562,-4.51311 43.92562,-9.50711c0,-4.994 14.09157,-8.11178 9.09757,-8.11178l-116.5763,-0.46511l0,-17.707c0,-4.994 -4.048,-9.042 -9.042,-9.042l-139.3,0c-4.994,0 -9.042,4.048 -9.042,9.042l0,17.707l-130.727,0l-0.005,-28.804c0,-3.24 0.633,-6.425 1.881,-9.467zm268.151,29.606l0,8.665l0,18.084l0,85.228c0,12.531 -3.822,24.186 -10.362,33.858c-4.951,7.325 -11.465,13.51 -19.055,18.084c-9.118,5.496 -19.791,8.665 -31.191,8.665c-11.4,0 -22.073,-3.168 -31.191,-8.665c-7.588,-4.574 -14.102,-10.759 -19.053,-18.084c-6.54,-9.674 -10.362,-21.328 -10.362,-33.858l0,-85.228l0,-18.084l0,-8.665l121.214,0zm-131.629,145.836l-138.375,0l-0.02,-119.086l130.725,0l0,85.228c-0.001,12.114 2.757,23.597 7.67,33.858zm280.384,48.563l-0.051,0.521c-0.035,0.403 -0.076,0.804 -0.129,1.195l-0.082,0.53c-0.065,0.404 -0.139,0.805 -0.227,1.225l-0.09,0.414c-0.104,0.457 -0.222,0.909 -0.352,1.356l-0.066,0.239c-1.128,3.765 -3.165,7.26 -5.91,10.13l-0.082,0.088c-0.511,0.529 -1.065,1.05 -1.653,1.558l-0.27,0.224c-0.688,0.576 -1.259,1.016 -1.798,1.389c-0.668,0.463 -1.215,0.815 -1.726,1.109l-184.388,106.496c-7.71,4.454 -17.288,4.455 -25.001,0.005l-184.421,-106.435c-0.526,-0.304 -1.091,-0.668 -1.779,-1.147c-0.539,-0.375 -1.109,-0.817 -1.782,-1.382l-0.289,-0.241c-0.576,-0.5 -1.128,-1.022 -1.596,-1.507c-0.027,-0.029 -0.127,-0.136 -0.154,-0.164c-1.098,-1.155 -2.093,-2.424 -2.957,-3.775c-0.012,-0.018 -0.024,-0.037 -0.035,-0.055c-1.243,-1.954 -2.205,-4.058 -2.861,-6.257l-0.068,-0.241c-0.127,-0.444 -0.245,-0.89 -0.351,-1.355l-0.093,-0.428c-0.082,-0.395 -0.156,-0.793 -0.217,-1.185l-0.082,-0.524c-0.054,-0.399 -0.096,-0.802 -0.13,-1.198l-0.048,-0.497c-0.039,-0.562 -0.064,-1.125 -0.064,-1.7l-0.005,-28.868l150.356,0c14.431,16.383 35.541,26.749 59.04,26.749c23.499,0 44.607,-10.366 59.04,-26.749l150.38,0l0.005,28.803c-0.002,0.572 -0.028,1.14 -0.064,1.677z"/>
  <g id="svg_11"/>
  <g id="svg_12"/>
  <g id="svg_13"/>
  <g id="svg_14"/>
  <g id="svg_15"/>
  <g id="svg_16"/>
  <g id="svg_17"/>
  <g id="svg_18"/>
  <g id="svg_19"/>
  <g id="svg_20"/>
  <g id="svg_21"/>
  <g id="svg_22"/>
  <g id="svg_23"/>
  <g id="svg_24"/>
  <g id="svg_25"/>
  <rect stroke="null" id="svg_26" height="13.0612" width="60.81622" y="170.20376" x="255.99999" stroke-opacity="null" stroke-width="null" fill="#ffffff"/>
  <path d="m210.85713,331.42856c0.28571,0 0.23625,-0.24365 0,-0.57144c-0.37355,-0.51828 -0.48358,-1.19601 -0.85715,-1.71429c-0.47252,-0.65558 -0.65512,-1.22653 -0.85715,-1.42856c-0.20203,-0.20203 -0.28571,-0.28571 -0.28571,-0.57144c0,-0.28571 -0.08368,-0.36938 -0.28572,-0.57141c-0.20203,-0.20203 0.28572,0 0.57143,0.28571c0.28572,0.28571 0.98586,0.70016 1.71429,1.42859c0.72842,0.72842 1.196,1.05502 1.71428,1.42856c0.32779,0.23624 0.62457,0.76932 1.14285,1.14285c0.32779,0.23624 0.57143,1.14285 0.85715,1.42859c0.85712,0.85715 1.01662,1.29123 2,2c0.51828,0.37357 1.14285,0.85712 1.71429,1.14285c0.57143,0.28571 0.85715,0.28571 1.14285,0.57141c0.28572,0.28574 0.30745,0.4621 0.57143,0.57144c0.37331,0.15463 0.48384,0.98822 0.85715,1.14285c0.26396,0.10934 0.85713,0.28571 1.14285,0.28571l0.28572,0" id="svg_30" fill-opacity="null" stroke-opacity="null" stroke-width="null" stroke="null" fill="none"/>
  <path stroke="null" d="m219.71426,333.71426c-3.07135,0 -3.07135,-0.28571 -6.14285,-0.57144l-3.07135,-0.28571l0,-0.28571l-3.07151,-0.28571" id="svg_31" fill-opacity="null" stroke-opacity="null" stroke-width="null" fill="none"/>
  <rect id="svg_34" height="22.28571" width="150.57142" y="333.42855" x="46.57143" stroke-opacity="null" stroke-width="null" stroke="null" fill="#103b9b"/>
  <rect id="svg_35" height="28.85714" width="150.2857" y="333.5859" x="315.14284" stroke-width="null" stroke="null" fill="#103B9B"/>
  <path stroke="null" id="svg_36" d="m197.04843,333.60204l10.28078,9.85241l-10.28079,0l0.00001,-9.85241z" stroke-width="null" fill="#103B9B"/>
  <path stroke="null" id="svg_38" d="m316.09586,332.64966l-11.30646,10.48734l11.30646,0l0,-10.48734z" stroke-width="null" fill="#103B9B"/>
 </g>
</svg>